<?xml version="1.0" encoding="UTF-8" standalone="no"?>
<svg
   xmlns:dc="http://purl.org/dc/elements/1.1/"
   xmlns:cc="http://creativecommons.org/ns#"
   xmlns:rdf="http://www.w3.org/1999/02/22-rdf-syntax-ns#"
   xmlns:svg="http://www.w3.org/2000/svg"
   xmlns="http://www.w3.org/2000/svg"
   viewBox="0 0 246.91875 140.27875"
   height="140.27875"
   width="246.91875"
   xml:space="preserve"
   version="1.1"
   id="svg2"><metadata
     id="metadata8"><rdf:RDF><cc:Work
         rdf:about=""><dc:format>image/svg+xml</dc:format><dc:type
           rdf:resource="http://purl.org/dc/dcmitype/StillImage" /></cc:Work></rdf:RDF></metadata><defs
     id="defs6" /><g
     transform="matrix(1.25,0,0,-1.25,0,140.27875)"
     id="g10"><g
       transform="translate(98.767,56.112)"
       id="g12"><g
         id="g14"><g
           id="g16"><g
             id="g18"><g
               transform="translate(-95.447,-52.791)"
               id="g20"><g
                 id="g22"><g
                   transform="translate(45.841,42.519)"
                   id="g24"><g
                     id="g26"><g
                       id="g28"><g
                         id="g30" /><g
                         id="g32" /><g
                         id="g34"><path
                           id="path36"
                           style="fill:#004677;fill-opacity:1;fill-rule:evenodd;stroke:none"
                           d="M -36.82367,21.2601 C -25.10736,38.67654 -14.63483,47.17798 4.8176,55.0651 20.11023,63.06326 40.37894,54.71312 45.6003,38.26402 47.3622,15.50725 43.86423,1.021 31.91351,-18.42523 42.08945,-0.79993 36.05035,21.7382 18.42505,31.91414 0.79974,42.09009 -21.73839,36.051 -31.91432,18.42569 M 136.03749,21.2601 C 124.3212,38.67654 113.84866,47.17798 94.39622,55.0651 79.10358,63.06326 58.83487,54.71312 53.61351,38.26402 51.85161,15.50725 55.3496,1.021 67.30031,-18.42523 57.12436,-0.79993 63.16345,21.7382 80.78876,31.91414 98.41408,42.09009 120.95221,36.051 131.12816,18.42569" /></g><g
                         id="g38"><path
                           id="path40"
                           style="fill:#006cb7;fill-opacity:1;fill-rule:evenodd;stroke:none"
                           d="M 42.5202,0 C 42.5202,23.48355 23.48355,42.5202 0,42.5202 -23.48355,42.5202 -42.5202,23.48355 -42.5202,0 c 0,-23.48355 19.03665,-42.5202 42.5202,-42.5202 23.48355,0 42.5202,19.03665 42.5202,42.5202 z M 36.85092,0 C 36.85092,20.35246 20.35246,36.85092 0,36.85092 -20.35246,36.85092 -36.85092,20.35246 -36.85092,0 c 0,-20.35246 16.49846,-36.85092 36.85092,-36.85092 20.35246,0 36.85092,16.49846 36.85092,36.85092 z" /></g><g
                         id="g42"><path
                           id="path44"
                           style="fill:#006cb7;fill-opacity:1;fill-rule:evenodd;stroke:none"
                           d="m 141.73402,0 c 0,23.48355 -19.03665,42.5202 -42.5202,42.5202 -23.48356,0 -42.5202,-19.03665 -42.5202,-42.5202 0,-23.48355 19.03664,-42.5202 42.5202,-42.5202 23.48355,0 42.5202,19.03665 42.5202,42.5202 z m -5.66926,0 c 0,20.35246 -16.49848,36.85092 -36.85094,36.85092 C 78.86134,36.85092 62.36288,20.35246 62.36288,0 c 0,-20.35246 16.49846,-36.85092 36.85094,-36.85092 20.35246,0 36.85094,16.49846 36.85094,36.85092 z" /></g><g
                         id="g46"><path
                           id="path48"
                           style="fill:#006cb7;fill-opacity:1;fill-rule:evenodd;stroke:none"
                           d="m 36.82367,-21.2601 c 6.58173,11.40007 6.58173,25.45085 0,36.85092 10.88646,-5.00446 20.69977,-4.09149 30.47664,2.83441 -6.58173,-11.40007 -6.58173,-25.45085 0,-36.85092 -11.95096,6.90033 -23.43584,6.90033 -35.3868,4.6e-4" /></g><g
                         id="g50"><g
                           transform="matrix(0.55,0,0,0.55,-33.446,-18.98)"
                           id="g52"><g
                             id="g54"><g
                               transform="translate(60.811,27.423)"
                               id="g56"><g
                                 id="g58"><g
                                   id="g60"><g
                                   id="g62"><g
                                   id="g64"><path
                                   id="path66"
                                   style="fill:#bfdaed;fill-opacity:1;fill-rule:nonzero;stroke:#006cb7;stroke-width:1.59404004;stroke-linecap:butt;stroke-linejoin:miter;stroke-miterlimit:10;stroke-dasharray:none;stroke-opacity:1"
                                   d="m 12.45346,-14.17339 c 0,6.87795 -5.57552,12.45348 -12.45346,12.45348 -6.87794,0 -12.45346,-5.57553 -12.45346,-12.45348 0,-6.87796 5.57552,-12.45347 12.45346,-12.45347 6.87794,0 12.45346,5.57551 12.45346,12.45347 z" /></g><g
                                   transform="translate(0,-14.173)"
                                   id="g68"><g
                                   id="g70" /><g
                                   transform="translate(0,14.173)"
                                   id="g72" /></g></g><g
                                   id="g74"><g
                                   id="g76"><path
                                   id="path78"
                                   style="fill:#bfdaed;fill-opacity:1;fill-rule:nonzero;stroke:#006cb7;stroke-width:1.59404004;stroke-linecap:butt;stroke-linejoin:miter;stroke-miterlimit:10;stroke-dasharray:none;stroke-opacity:1"
                                   d="m -15.89333,28.3468 c 0,6.87796 -5.57553,12.45348 -12.45347,12.45348 -6.87796,0 -12.45348,-5.57552 -12.45348,-12.45348 0,-6.87794 5.57552,-12.45347 12.45348,-12.45347 6.87794,0 12.45347,5.57553 12.45347,12.45347 z" /></g><g
                                   transform="translate(-28.347,28.346)"
                                   id="g80"><g
                                   id="g82" /><g
                                   transform="translate(28.347,-28.346)"
                                   id="g84" /></g></g><g
                                   id="g86"><g
                                   id="g88"><path
                                   id="path90"
                                   style="fill:#bfdaed;fill-opacity:1;fill-rule:nonzero;stroke:#006cb7;stroke-width:1.59404004;stroke-linecap:butt;stroke-linejoin:miter;stroke-miterlimit:10;stroke-dasharray:none;stroke-opacity:1"
                                   d="m 40.80028,28.3468 c 0,6.87796 -5.57552,12.45348 -12.45348,12.45348 -6.87794,0 -12.45347,-5.57552 -12.45347,-12.45348 0,-6.87794 5.57553,-12.45347 12.45347,-12.45347 6.87796,0 12.45348,5.57553 12.45348,12.45347 z" /></g><g
                                   transform="translate(28.346,28.346)"
                                   id="g92"><g
                                   id="g94" /><g
                                   transform="translate(-28.346,-28.346)"
                                   id="g96" /></g></g><g
                                   id="g98"><g
                                   id="g100"><path
                                   id="path102"
                                   style="fill:none;stroke:#004677;stroke-width:1.59404004;stroke-linecap:butt;stroke-linejoin:miter;stroke-miterlimit:10;stroke-dasharray:none;stroke-opacity:1"
                                   d="M -7.37212,-3.11461 -17.18253,11.6007" /><g
                                   transform="matrix(-0.5564,0.8346,-0.8346,-0.5564,-17.18251,11.60068)"
                                   id="g104"><g
                                   id="g106"><path
                                   id="path108"
                                   style="fill:#004677;fill-opacity:1;fill-rule:nonzero;stroke:none"
                                   d="M 6.81448,0 C 4.79533,0.37857 1.51433,1.51433 -0.75716,2.83936 l 0,-5.67872 C 1.51433,-1.51433 4.79533,-0.37857 6.81448,0" /></g></g></g><g
                                   id="g110"><path
                                   id="path112"
                                   style="fill:none;stroke:#004677;stroke-width:1.59404004;stroke-linecap:butt;stroke-linejoin:miter;stroke-miterlimit:10;stroke-dasharray:none;stroke-opacity:1"
                                   d="m 11.16365,2.5727 9.81043,14.71531" /><g
                                   transform="matrix(-0.5564,-0.8346,0.8346,-0.5564,11.16367,2.57271)"
                                   id="g114"><g
                                   id="g116"><path
                                   id="path118"
                                   style="fill:#004677;fill-opacity:1;fill-rule:nonzero;stroke:none"
                                   d="M 6.81448,0 C 4.79533,0.37857 1.51433,1.51433 -0.75716,2.83936 l 0,-5.67872 C 1.51433,-1.51433 4.79533,-0.37857 6.81448,0" /></g></g></g><g
                                   id="g120"><path
                                   id="path122"
                                   style="fill:none;stroke:#004677;stroke-width:1.59404004;stroke-linecap:butt;stroke-linejoin:miter;stroke-miterlimit:10;stroke-dasharray:none;stroke-opacity:1"
                                   d="m -15.0963,28.3468 23.37811,0" /><g
                                   transform="translate(8.28181,28.3468)"
                                   id="g124"><g
                                   id="g126"><path
                                   id="path128"
                                   style="fill:#004677;fill-opacity:1;fill-rule:nonzero;stroke:none"
                                   d="M 6.81448,0 C 4.79533,0.37857 1.51433,1.51433 -0.75716,2.83936 l 0,-5.67872 C 1.51433,-1.51433 4.79533,-0.37857 6.81448,0" /></g></g></g><g
                                   id="g130"><path
                                   id="path132"
                                   style="fill:none;stroke:#004677;stroke-width:1.59404004;stroke-linecap:butt;stroke-linejoin:miter;stroke-miterlimit:10;stroke-dasharray:none;stroke-opacity:1"
                                   d="m -56.69362,28.3468 8.28183,0" /><g
                                   transform="translate(-48.41179,28.3468)"
                                   id="g134"><g
                                   id="g136"><path
                                   id="path138"
                                   style="fill:#004677;fill-opacity:1;fill-rule:nonzero;stroke:none"
                                   d="M 6.81448,0 C 4.79533,0.37857 1.51433,1.51433 -0.75716,2.83936 l 0,-5.67872 C 1.51433,-1.51433 4.79533,-0.37857 6.81448,0" /></g></g></g><g
                                   id="g140"><path
                                   id="path142"
                                   style="fill:none;stroke:#004677;stroke-width:1.59404004;stroke-linecap:butt;stroke-linejoin:miter;stroke-miterlimit:10;stroke-dasharray:none;stroke-opacity:1"
                                   d="m -28.3468,-14.17339 8.28183,0" /><g
                                   transform="translate(-20.06497,-14.17339)"
                                   id="g144"><g
                                   id="g146"><path
                                   id="path148"
                                   style="fill:#004677;fill-opacity:1;fill-rule:nonzero;stroke:none"
                                   d="M 6.81448,0 C 4.79533,0.37857 1.51433,1.51433 -0.75716,2.83936 l 0,-5.67872 C 1.51433,-1.51433 4.79533,-0.37857 6.81448,0" /></g></g></g><g
                                   id="g150"><path
                                   id="path152"
                                   style="fill:none;stroke:#004677;stroke-width:1.59404004;stroke-linecap:butt;stroke-linejoin:miter;stroke-miterlimit:10;stroke-dasharray:none;stroke-opacity:1"
                                   d="m 41.5973,28.3468 8.28184,0" /><g
                                   transform="translate(49.87914,28.3468)"
                                   id="g154"><g
                                   id="g156"><path
                                   id="path158"
                                   style="fill:#004677;fill-opacity:1;fill-rule:nonzero;stroke:none"
                                   d="M 6.81448,0 C 4.79533,0.37857 1.51433,1.51433 -0.75716,2.83936 l 0,-5.67872 C 1.51433,-1.51433 4.79533,-0.37857 6.81448,0" /></g></g></g></g></g></g><g
                                 transform="translate(-60.811,-27.424)"
                                 id="g160" /></g></g><g
                             transform="translate(33.446,18.981)"
                             id="g162" /></g></g><g
                         id="g164"><g
                           transform="matrix(1.2,0,0,1.2,72.012,-23.215)"
                           id="g166"><g
                             id="g168"><g
                               transform="translate(8.17,5.496)"
                               id="g170"><g
                                 id="g172"><g
                                   id="g174"><g
                                   id="g176"><path
                                   id="path178"
                                   style="fill:none;stroke:#004677;stroke-width:1.19553006;stroke-linecap:butt;stroke-linejoin:miter;stroke-miterlimit:10;stroke-dasharray:none;stroke-opacity:1"
                                   d="m 4.98138,0 18.38404,0 c 2.75118,0 4.98138,2.2302 4.98138,4.98138 l 0,18.38404 c 0,2.75118 -2.2302,4.98138 -4.98138,4.98138 l -18.38404,0 C 2.2302,28.3468 0,26.1166 0,23.36542 L 0,4.98138 C 0,2.2302 2.2302,0 4.98138,0 Z" /></g><g
                                   id="g180"><path
                                   id="path182"
                                   style="fill:none;stroke:#004677;stroke-width:1.19553006;stroke-linecap:butt;stroke-linejoin:miter;stroke-miterlimit:10;stroke-dasharray:none;stroke-opacity:1"
                                   d="m 0,5.66927 -4.25183,0" /></g><g
                                   id="g184"><path
                                   id="path186"
                                   style="fill:none;stroke:#004677;stroke-width:1.19553006;stroke-linecap:butt;stroke-linejoin:miter;stroke-miterlimit:10;stroke-dasharray:none;stroke-opacity:1"
                                   d="m 28.3468,5.66927 4.25185,0" /></g><g
                                   id="g188"><path
                                   id="path190"
                                   style="fill:none;stroke:#004677;stroke-width:1.19553006;stroke-linecap:butt;stroke-linejoin:miter;stroke-miterlimit:10;stroke-dasharray:none;stroke-opacity:1"
                                   d="m 5.66927,0 0,-4.25183" /></g><g
                                   id="g192"><path
                                   id="path194"
                                   style="fill:none;stroke:#004677;stroke-width:1.19553006;stroke-linecap:butt;stroke-linejoin:miter;stroke-miterlimit:10;stroke-dasharray:none;stroke-opacity:1"
                                   d="m 5.66927,28.3468 0,4.25185" /></g><g
                                   id="g196"><path
                                   id="path198"
                                   style="fill:none;stroke:#004677;stroke-width:1.19553006;stroke-linecap:butt;stroke-linejoin:miter;stroke-miterlimit:10;stroke-dasharray:none;stroke-opacity:1"
                                   d="m 0,9.92111 -4.25183,0" /></g><g
                                   id="g200"><path
                                   id="path202"
                                   style="fill:none;stroke:#004677;stroke-width:1.19553006;stroke-linecap:butt;stroke-linejoin:miter;stroke-miterlimit:10;stroke-dasharray:none;stroke-opacity:1"
                                   d="m 28.3468,9.92111 4.25185,0" /></g><g
                                   id="g204"><path
                                   id="path206"
                                   style="fill:none;stroke:#004677;stroke-width:1.19553006;stroke-linecap:butt;stroke-linejoin:miter;stroke-miterlimit:10;stroke-dasharray:none;stroke-opacity:1"
                                   d="m 9.92111,0 0,-4.25183" /></g><g
                                   id="g208"><path
                                   id="path210"
                                   style="fill:none;stroke:#004677;stroke-width:1.19553006;stroke-linecap:butt;stroke-linejoin:miter;stroke-miterlimit:10;stroke-dasharray:none;stroke-opacity:1"
                                   d="m 9.92111,28.3468 0,4.25185" /></g><g
                                   id="g212"><path
                                   id="path214"
                                   style="fill:none;stroke:#004677;stroke-width:1.19553006;stroke-linecap:butt;stroke-linejoin:miter;stroke-miterlimit:10;stroke-dasharray:none;stroke-opacity:1"
                                   d="m 0,14.17296 -4.25183,0" /></g><g
                                   id="g216"><path
                                   id="path218"
                                   style="fill:none;stroke:#004677;stroke-width:1.19553006;stroke-linecap:butt;stroke-linejoin:miter;stroke-miterlimit:10;stroke-dasharray:none;stroke-opacity:1"
                                   d="m 28.3468,14.17296 4.25185,0" /></g><g
                                   id="g220"><path
                                   id="path222"
                                   style="fill:none;stroke:#004677;stroke-width:1.19553006;stroke-linecap:butt;stroke-linejoin:miter;stroke-miterlimit:10;stroke-dasharray:none;stroke-opacity:1"
                                   d="m 14.17296,0 0,-4.25183" /></g><g
                                   id="g224"><path
                                   id="path226"
                                   style="fill:none;stroke:#004677;stroke-width:1.19553006;stroke-linecap:butt;stroke-linejoin:miter;stroke-miterlimit:10;stroke-dasharray:none;stroke-opacity:1"
                                   d="m 14.17296,28.3468 0,4.25185" /></g><g
                                   id="g228"><path
                                   id="path230"
                                   style="fill:none;stroke:#004677;stroke-width:1.19553006;stroke-linecap:butt;stroke-linejoin:miter;stroke-miterlimit:10;stroke-dasharray:none;stroke-opacity:1"
                                   d="m 0,18.4248 -4.25183,0" /></g><g
                                   id="g232"><path
                                   id="path234"
                                   style="fill:none;stroke:#004677;stroke-width:1.19553006;stroke-linecap:butt;stroke-linejoin:miter;stroke-miterlimit:10;stroke-dasharray:none;stroke-opacity:1"
                                   d="m 28.3468,18.4248 4.25185,0" /></g><g
                                   id="g236"><path
                                   id="path238"
                                   style="fill:none;stroke:#004677;stroke-width:1.19553006;stroke-linecap:butt;stroke-linejoin:miter;stroke-miterlimit:10;stroke-dasharray:none;stroke-opacity:1"
                                   d="m 18.4248,0 0,-4.25183" /></g><g
                                   id="g240"><path
                                   id="path242"
                                   style="fill:none;stroke:#004677;stroke-width:1.19553006;stroke-linecap:butt;stroke-linejoin:miter;stroke-miterlimit:10;stroke-dasharray:none;stroke-opacity:1"
                                   d="m 18.4248,28.3468 0,4.25185" /></g><g
                                   id="g244"><path
                                   id="path246"
                                   style="fill:none;stroke:#004677;stroke-width:1.19553006;stroke-linecap:butt;stroke-linejoin:miter;stroke-miterlimit:10;stroke-dasharray:none;stroke-opacity:1"
                                   d="m 0,22.67665 -4.25183,0" /></g><g
                                   id="g248"><path
                                   id="path250"
                                   style="fill:none;stroke:#004677;stroke-width:1.19553006;stroke-linecap:butt;stroke-linejoin:miter;stroke-miterlimit:10;stroke-dasharray:none;stroke-opacity:1"
                                   d="m 28.3468,22.67665 4.25185,0" /></g><g
                                   id="g252"><path
                                   id="path254"
                                   style="fill:none;stroke:#004677;stroke-width:1.19553006;stroke-linecap:butt;stroke-linejoin:miter;stroke-miterlimit:10;stroke-dasharray:none;stroke-opacity:1"
                                   d="m 22.67665,0 0,-4.25183" /></g><g
                                   id="g256"><path
                                   id="path258"
                                   style="fill:none;stroke:#004677;stroke-width:1.19553006;stroke-linecap:butt;stroke-linejoin:miter;stroke-miterlimit:10;stroke-dasharray:none;stroke-opacity:1"
                                   d="m 22.67665,28.3468 0,4.25185" /></g><g
                                   id="g260"><g
                                   id="g262"><path
                                   id="path264"
                                   style="fill:#004677;fill-opacity:1;fill-rule:nonzero;stroke:#004677;stroke-width:0.3985;stroke-linecap:butt;stroke-linejoin:miter;stroke-miterlimit:10;stroke-dasharray:none;stroke-opacity:1"
                                   d="m 6.37367,5.66927 c 0,0.38902 -0.31538,0.7044 -0.7044,0.7044 -0.38903,0 -0.7044,-0.31538 -0.7044,-0.7044 0,-0.38903 0.31537,-0.7044 0.7044,-0.7044 0.38902,0 0.7044,0.31537 0.7044,0.7044 z" /><g
                                   transform="translate(5.67,5.669)"
                                   id="g266"><g
                                   id="g268" /><g
                                   transform="translate(-5.67,-5.669)"
                                   id="g270" /></g></g></g><g
                                   id="g272"><g
                                   id="g274"><g
                                   id="g276"><path
                                   id="path278"
                                   style="fill:#ffffff;fill-opacity:1;fill-rule:nonzero;stroke:#004677;stroke-width:1.19553006;stroke-linecap:butt;stroke-linejoin:miter;stroke-miterlimit:10;stroke-dasharray:none;stroke-opacity:1"
                                   d="m 33.24568,5.66927 c 0,5.83671 -4.73146,10.56817 -10.56816,10.56817 -5.83672,0 -10.56818,-4.73146 -10.56818,-10.56817 0,-5.83669 4.73146,-10.56817 10.56818,-10.56817 5.8367,0 10.56816,4.73148 10.56816,10.56817 z" /></g><g
                                   transform="translate(22.678,5.669)"
                                   id="g280"><g
                                   id="g282" /><g
                                   transform="translate(-22.678,-5.669)"
                                   id="g284" /></g></g></g><g
                                   id="g286"><path
                                   id="path288"
                                   style="fill:none;stroke:#004677;stroke-width:1.19553006;stroke-linecap:butt;stroke-linejoin:miter;stroke-miterlimit:10;stroke-dasharray:none;stroke-opacity:1"
                                   d="m 22.67752,13.14134 0,-7.47207 4.98138,0" /></g></g></g><g
                                 transform="translate(-8.17,-5.496)"
                                 id="g290" /></g></g><g
                             transform="translate(-72.012,23.215)"
                             id="g292" /></g></g></g></g><g
                     transform="translate(-45.841,-42.52)"
                     id="g294" /></g></g><g
                 transform="translate(95.447,52.791)"
                 id="g296" /></g></g></g></g></g></g></svg>